# Blender v3.0.0 OBJ File: ''
# www.blender.org
mtllib rounded-area.mtl
o Cube.001_Cube.002
v -0.964672 -1.000000 2.213192
v -0.964672 -0.964672 2.248520
v -1.000000 -0.964672 2.213192
v -0.964672 0.964672 2.248520
v -0.964672 1.000000 2.213192
v -1.000000 0.964672 2.213192
v -0.964672 -1.000000 -2.213192
v -1.000000 -0.964672 -2.213192
v -0.964672 -0.964672 -2.248520
v -0.964672 1.000000 -2.213192
v -0.964672 0.964672 -2.248520
v -1.000000 0.964672 -2.213192
v 0.964672 -1.000000 2.213192
v 1.000000 -0.964672 2.213192
v 0.964672 -0.964672 2.248520
v 0.964672 1.000000 2.213192
v 0.964672 0.964672 2.248520
v 1.000000 0.964672 2.213192
v 0.964672 -1.000000 -2.213192
v 0.964672 -0.964672 -2.248520
v 1.000000 -0.964672 -2.213192
v 0.964672 1.000000 -2.213192
v 1.000000 0.964672 -2.213192
v 0.964672 0.964672 -2.248520
vt 0.379416 0.754416
vt 0.379416 0.995584
vt 0.620584 0.995584
vt 0.620584 0.754416
vt 0.379416 0.501964
vt 0.379416 0.748036
vt 0.620584 0.748036
vt 0.620584 0.501964
vt 0.629416 0.501964
vt 0.629416 0.748036
vt 0.870584 0.748036
vt 0.870584 0.501964
vt 0.379416 0.001964
vt 0.379416 0.248036
vt 0.620584 0.248036
vt 0.620584 0.001964
vt 0.379416 0.254416
vt 0.379416 0.495584
vt 0.620584 0.495584
vt 0.620584 0.254416
vt 0.129416 0.748036
vt 0.125000 0.748036
vt 0.129416 0.750000
vt 0.620584 1.000000
vt 0.625000 0.995584
vt 0.129416 0.501964
vt 0.129416 0.500000
vt 0.125000 0.501964
vt 0.625000 0.254416
vt 0.620584 0.250000
vt 0.625000 0.254416
vt 0.370584 0.748036
vt 0.370584 0.750000
vt 0.375000 0.748036
vt 0.625000 0.754416
vt 0.620584 0.750000
vt 0.625000 0.754416
vt 0.370584 0.501964
vt 0.375000 0.501964
vt 0.370584 0.500000
vt 0.625000 0.501964
vt 0.620584 0.500000
vt 0.625000 0.501964
vt 0.379416 0.000000
vt 0.620584 0.000000
vt 0.625000 0.001964
vt 0.625000 0.248036
vt 0.625000 0.495584
vn 0.0000 0.0000 -1.0000
vn -1.0000 0.0000 0.0000
vn 0.0000 -1.0000 0.0000
vn 1.0000 0.0000 0.0000
vn 0.0000 0.0000 1.0000
vn 0.5774 0.5773 -0.5773
vn 0.5774 -0.5773 -0.5773
vn 0.5774 0.5773 0.5773
vn 0.5774 -0.5773 0.5773
vn -0.5774 0.5773 -0.5773
vn -0.5774 -0.5773 -0.5773
vn -0.5774 0.5773 0.5773
vn -0.5774 -0.5773 0.5773
vn 0.7071 0.7071 0.0000
vn 0.7071 0.0000 -0.7071
vn 0.7071 -0.7071 0.0000
vn 0.7071 0.0000 0.7071
vn 0.0000 0.7071 0.7071
vn 0.0000 -0.7071 0.7071
vn -0.7071 0.0000 0.7071
vn -0.7071 0.7071 0.0000
vn -0.7071 -0.7071 0.0000
vn -0.7071 0.0000 -0.7071
vn 0.0000 0.7071 -0.7071
vn 0.0000 -0.7071 -0.7071
vn 0.0000 1.0000 0.0000
usemtl None
s off
f 15/1/1 2/2/1 4/3/1 17/4/1
f 21/5/2 14/6/2 18/7/2 23/8/2
f 22/9/3 16/10/3 5/11/3 10/12/3
f 3/13/4 8/14/4 12/15/4 6/16/4
f 9/17/5 20/18/5 24/19/5 11/20/5
f 1/21/6 3/22/6 2/23/6
f 4/3/7 6/24/7 5/25/7
f 7/26/8 9/27/8 8/28/8
f 10/29/9 12/30/9 11/31/9
f 13/32/10 15/33/10 14/34/10
f 16/35/11 18/36/11 17/37/11
f 19/38/12 21/39/12 20/40/12
f 22/41/13 24/42/13 23/43/13
f 7/26/14 8/28/14 3/22/14 1/21/14
f 2/44/15 3/13/15 6/16/15 4/45/15
f 5/46/16 6/16/16 12/15/16 10/47/16
f 11/20/17 12/15/17 8/14/17 9/17/17
f 19/38/18 20/40/18 9/27/18 7/26/18
f 10/29/19 11/20/19 24/19/19 22/48/19
f 23/8/20 24/19/20 20/18/20 21/5/20
f 13/32/21 14/6/21 21/5/21 19/38/21
f 22/9/22 23/8/22 18/7/22 16/10/22
f 17/4/23 18/7/23 14/6/23 15/1/23
f 1/21/24 2/23/24 15/33/24 13/32/24
f 16/35/25 17/4/25 4/3/25 5/25/25
f 7/26/26 1/21/26 13/32/26 19/38/26
